<?xml version="1.0" standalone="no"?>
<!DOCTYPE svg PUBLIC "-//W3C//DTD SVG 20010904//EN"
 "http://www.w3.org/TR/2001/REC-SVG-20010904/DTD/svg10.dtd">
<svg version="1.0" xmlns="http://www.w3.org/2000/svg"
 width="2200.000000pt" height="500.000000pt" viewBox="0 0 2200.000000 500.000000"
 preserveAspectRatio="xMidYMid meet">
<metadata>
Created by potrace 1.12, written by Peter Selinger 2001-2015
</metadata>
<g transform="translate(0.000000,500.000000) scale(0.100000,-0.100000)"
fill="#ffffff" stroke="none">
<path d="M16963 4364 c-14 -3 -20 -10 -16 -20 8 -22 -25 -67 -45 -60 -16 6
-16 5 0 -7 14 -11 15 -21 8 -53 -4 -21 -16 -84 -25 -139 -10 -55 -23 -109 -30
-121 -17 -26 -22 -56 -12 -71 4 -6 0 -42 -8 -80 -9 -37 -17 -81 -20 -98 -19
-119 -96 -479 -106 -491 -5 -6 -6 -14 -3 -17 7 -7 -24 -153 -38 -180 -5 -10
-14 -14 -20 -11 -6 4 -8 3 -5 -3 9 -14 -18 -47 -31 -39 -7 4 -12 16 -12 27 0
27 -38 22 -54 -6 -6 -11 -12 -22 -13 -24 -2 -2 -8 1 -15 6 -10 8 -19 1 -36
-25 -14 -21 -17 -30 -8 -22 9 7 19 10 23 7 3 -4 -25 -95 -63 -204 -71 -204
-101 -258 -147 -265 -16 -2 -22 -10 -22 -27 0 -14 -7 -27 -14 -29 -10 -3 -12
0 -8 11 11 28 -48 46 -85 26 -24 -13 -18 -33 10 -34 12 0 21 -4 19 -9 -2 -11
-95 -8 -115 3 -16 9 -72 2 -72 -10 0 -4 -17 -13 -39 -20 -38 -11 -39 -13 -45
-68 -7 -63 -18 -87 -35 -77 -6 4 -11 3 -11 -2 0 -5 12 -14 26 -20 14 -7 22
-17 18 -23 -5 -8 -9 -8 -14 1 -5 9 -9 9 -14 1 -5 -8 -13 -8 -27 -1 -15 9 -17
15 -9 30 8 16 7 20 -4 20 -9 0 -18 -12 -21 -27 -4 -16 -9 -39 -12 -53 -4 -14
-5 -31 -4 -38 2 -10 -4 -12 -20 -7 -14 5 -20 3 -18 -4 3 -7 35 -14 79 -16 95
-6 100 -7 100 -17 0 -4 11 -8 25 -8 17 0 25 -5 25 -17 0 -14 -2 -15 -9 -5 -6
10 -10 9 -14 -7 -3 -14 0 -21 9 -21 12 0 14 -49 14 -299 0 -198 -4 -302 -10
-306 -8 -5 -7 -12 2 -23 7 -9 8 -13 2 -9 -6 3 -16 -5 -22 -18 -12 -26 -16 -27
-92 -27 -81 -1 -88 1 -93 25 -3 16 -5 13 -6 -10 0 -21 -6 -33 -15 -33 -8 0
-16 -7 -20 -15 -6 -17 -46 -21 -46 -5 0 6 7 10 15 10 18 0 20 21 3 38 -15 15
-28 16 -28 2 0 -5 7 -10 15 -10 8 0 15 -4 15 -9 0 -5 -14 -8 -31 -7 -18 1 -33
-3 -36 -11 -8 -21 -23 -15 -23 10 0 16 -3 18 -9 9 -4 -8 -11 -13 -15 -13 -24
3 -36 -1 -36 -14 0 -30 -97 -3 -103 29 -3 13 -5 9 -6 -11 -1 -23 -6 -33 -17
-33 -9 0 -14 6 -11 13 3 8 1 20 -4 28 -7 12 -9 12 -9 -1 0 -9 -9 -16 -21 -17
-12 -1 -27 -10 -34 -19 -7 -10 -19 -15 -28 -11 -10 4 -20 -1 -26 -11 -14 -25
-24 -8 -29 53 l-4 55 98 -4 c55 -2 109 -7 122 -9 12 -3 22 -2 22 4 0 5 9 9 20
9 11 0 20 4 20 9 0 13 -25 20 -49 14 -14 -3 -21 -1 -21 8 0 11 -2 11 -10 -1
-7 -12 -12 -12 -22 -2 -14 14 -48 16 -48 2 0 -5 -7 -10 -15 -10 -8 0 -15 8
-15 19 0 23 -25 45 -41 36 -6 -4 -15 -1 -20 6 -7 11 -9 10 -9 -5 0 -14 -3 -16
-13 -7 -8 6 -16 8 -20 5 -3 -3 -14 -1 -26 5 -14 8 -22 8 -27 0 -4 -8 -9 -7
-15 2 -8 12 -11 11 -19 -1 -8 -12 -10 -12 -10 -1 0 9 -4 10 -12 4 -13 -10 -44
-15 -90 -16 -18 0 -25 -4 -21 -13 3 -8 0 -14 -7 -14 -6 0 -10 8 -9 18 1 9 -1
24 -4 32 -3 8 -7 32 -9 53 -4 39 7 47 31 25 11 -10 13 -10 7 0 -4 6 -2 12 4
12 6 0 8 5 5 10 -3 6 -19 10 -34 10 -25 0 -29 5 -35 37 -3 21 -6 58 -7 83 -1
52 -17 104 -18 60 -1 -20 -3 -22 -11 -10 -12 19 -12 -26 0 -90 9 -42 9 -41 5
15 -6 80 10 50 19 -35 5 -45 4 -60 -4 -50 -7 12 -10 7 -10 -18 0 -18 4 -31 9
-27 5 3 13 0 17 -6 4 -8 3 -9 -4 -5 -13 8 -15 -1 -13 -49 2 -23 0 -27 -8 -15
-7 10 -11 11 -11 3 0 -14 -35 -12 -49 3 -5 5 -11 28 -14 51 -4 35 -2 41 12 38
10 -2 24 1 32 6 15 9 12 11 -36 13 -17 1 -21 11 -28 71 -5 39 -11 86 -14 105
-6 33 -6 33 -12 10 -6 -22 -8 -23 -14 -7 -11 28 -8 49 4 41 7 -4 10 -1 7 6 -2
8 -10 16 -16 18 -15 5 -14 -19 3 -128 13 -80 14 -81 9 -20 -6 84 11 59 20 -30
5 -45 4 -60 -4 -50 -7 12 -10 7 -10 -20 0 -23 3 -30 9 -22 7 11 10 10 15 -3 9
-26 7 -42 -4 -25 -7 11 -10 4 -10 -27 0 -37 -3 -42 -22 -41 -13 1 -31 8 -40
16 -13 11 -18 12 -18 2 0 -7 -7 -10 -15 -6 -8 3 -15 0 -15 -6 0 -7 -18 5 -40
27 -38 37 -49 78 -22 81 7 1 18 2 25 3 9 1 9 3 -2 10 -7 5 -21 6 -31 4 -22 -6
-28 9 -36 104 -8 85 -22 141 -23 89 -1 -35 -8 -31 -15 7 -2 15 0 27 5 27 5 0
9 5 9 10 0 6 -7 10 -16 10 -14 0 -15 -7 -10 -37 3 -21 6 -49 7 -63 0 -22 1
-23 8 -6 11 29 18 9 25 -69 4 -47 3 -63 -3 -50 -9 20 -10 20 -10 -1 -1 -18 -6
-21 -33 -19 -37 3 -44 19 -48 115 -2 65 -20 132 -38 138 -17 5 -16 -73 2 -90
14 -14 41 -146 32 -156 -6 -6 -13 11 -19 48 -3 14 -4 -4 -3 -40 0 -36 4 -67 7
-70 12 -10 20 -130 9 -130 -5 0 -10 5 -10 10 0 6 -11 10 -25 10 -30 0 -33 5
-37 93 -4 67 4 82 26 51 10 -13 12 -13 12 5 0 12 -5 22 -11 22 -5 1 -17 2 -25
3 -18 1 -28 36 -30 111 -1 57 -18 125 -19 83 -2 -33 -21 -18 -21 15 0 25 3 29
11 17 8 -12 10 -12 7 4 -2 11 -9 21 -15 24 -19 6 -17 -87 1 -94 9 -4 17 -27
21 -62 4 -32 9 -65 11 -74 3 -10 1 -18 -5 -18 -6 0 -11 15 -12 33 0 17 -3 27
-5 20 -3 -6 2 -61 10 -122 24 -169 26 -161 -36 -160 -62 1 -115 17 -60 18 46
1 40 15 -13 29 -63 17 -68 16 -88 -17 -15 -26 -20 -28 -52 -21 -19 4 -35 5
-35 1 0 -4 -18 -7 -39 -6 -31 0 -39 4 -38 18 1 18 27 25 27 7 0 -6 12 -9 28
-6 15 2 33 5 40 5 6 1 12 6 12 12 0 6 -7 9 -15 6 -8 -4 -17 -2 -20 3 -4 6 -19
10 -36 10 -16 0 -29 5 -29 11 0 8 -4 8 -14 0 -10 -9 -17 -6 -28 11 -13 21 -77
211 -94 281 -6 28 -24 47 -24 27 0 -6 16 -64 36 -128 19 -64 37 -129 39 -144
2 -15 6 -32 10 -38 5 -9 -7 -14 -27 -12 -3 1 -13 -14 -22 -33 -12 -25 -22 -34
-36 -32 -23 4 -39 17 -21 17 7 0 9 5 6 11 -4 6 -13 8 -21 5 -7 -3 -17 0 -21 7
-11 17 -11 117 0 117 5 0 6 10 3 23 -4 12 -6 100 -6 196 1 148 3 176 17 186
22 16 6 22 -37 15 -35 -5 -35 -6 -12 -19 20 -10 23 -18 18 -44 -3 -18 -6 -110
-7 -205 0 -112 -4 -172 -11 -172 -7 0 -7 -4 -1 -12 6 -7 8 -31 6 -53 -4 -39
-6 -40 -41 -39 -34 1 -37 4 -37 30 0 16 -4 32 -8 35 -4 3 -26 66 -48 140 -38
125 -59 174 -59 138 0 -8 20 -80 45 -161 30 -97 45 -166 45 -202 0 -60 -7 -66
-87 -66 -41 0 -43 -1 -43 -29 0 -17 5 -33 10 -36 6 -3 10 -10 10 -15 0 -11
-108 -11 -115 0 -4 6 12 10 37 11 41 1 42 1 13 10 -32 9 -75 2 -75 -13 0 -5
-5 -6 -11 -3 -10 7 37 55 54 55 4 0 7 10 7 23 0 13 11 57 25 97 14 41 24 78
22 83 -1 4 -18 -38 -37 -93 -35 -101 -35 -102 -64 -96 -16 4 -32 9 -35 11 -3
3 12 58 33 121 21 64 36 117 34 120 -3 2 -19 -40 -37 -93 -40 -121 -47 -131
-91 -129 -43 3 -43 0 5 144 20 63 35 116 32 118 -2 2 -21 -48 -41 -111 -21
-63 -42 -115 -48 -115 -5 0 -7 -8 -3 -19 4 -13 0 -20 -12 -23 -27 -6 -53 2
-53 17 0 7 -8 15 -19 18 -14 3 -17 0 -14 -14 6 -21 -12 -26 -20 -6 -4 7 -6 6
-6 -4 -1 -19 -24 -31 -45 -23 -8 3 -17 1 -20 -4 -3 -5 -21 -8 -41 -5 -26 3
-35 0 -35 -12 0 -8 9 -15 20 -15 11 0 20 -4 20 -8 0 -5 -36 -9 -80 -10 -65 -1
-83 -5 -100 -22 -11 -11 -25 -20 -31 -20 -6 0 -25 -10 -42 -22 -21 -15 -32
-18 -35 -10 -2 7 -21 12 -43 12 l-39 0 0 80 0 80 76 0 c41 0 73 4 70 8 -2 4
-38 7 -80 6 -72 -2 -75 -1 -63 17 7 11 18 17 29 14 9 -3 19 -1 23 5 3 6 -3 10
-14 10 -12 0 -21 4 -21 8 0 8 -15 12 -53 13 -14 0 -16 3 -8 13 13 15 4 49 -10
40 -5 -3 -9 2 -9 11 0 11 5 15 15 11 11 -4 15 1 15 17 0 18 -2 19 -11 7 -8
-11 -9 6 -5 63 6 81 14 107 31 104 6 -1 11 12 12 28 l2 30 -8 -30 -8 -30 -11
25 c-6 15 -11 19 -12 10 -1 -8 -4 -28 -7 -45 -2 -16 -8 -57 -11 -90 -6 -52
-10 -60 -31 -65 -18 -4 -25 -13 -25 -32 -1 -15 2 -24 6 -22 4 3 8 12 8 20 0 8
5 14 10 14 13 0 13 -36 -1 -98 -9 -43 -13 -49 -34 -49 -28 0 -40 25 -29 60 4
12 8 32 9 45 1 21 0 22 -12 6 -7 -9 -10 -21 -6 -27 3 -6 1 -7 -6 -3 -6 4 -9
11 -7 15 3 3 10 53 16 110 13 117 17 131 36 131 9 0 14 10 13 28 -2 23 -2 24
-6 5 -5 -27 -23 -31 -23 -5 0 33 -17 -7 -19 -46 -1 -20 -5 -62 -9 -92 -6 -46
-10 -55 -31 -60 -17 -4 -25 -13 -26 -29 -2 -21 0 -22 10 -7 7 9 16 16 20 16 6
0 2 -65 -8 -115 -3 -11 -5 -23 -6 -27 0 -5 -6 -8 -12 -8 -8 0 -7 5 2 16 7 9 9
18 3 22 -20 15 -34 54 -34 97 0 33 -3 44 -12 39 -13 -8 -4 118 11 159 6 14 6
29 0 38 -7 12 -9 12 -10 -1 -1 -8 -2 -19 -3 -25 -1 -5 -6 -43 -10 -83 -9 -76
-25 -98 -51 -71 -7 8 -25 57 -40 110 -28 100 -40 128 -50 117 -3 -3 10 -59 29
-124 19 -66 37 -133 40 -149 l7 -30 -62 -2 c-53 -2 -62 1 -66 18 -4 13 -14 19
-34 19 -21 0 -27 -4 -23 -15 5 -11 -1 -15 -20 -15 -19 0 -26 5 -26 20 0 17 -7
20 -44 20 -26 0 -47 5 -50 13 -5 9 -7 9 -12 0 -3 -8 -24 -13 -50 -13 -39 0
-44 -2 -44 -23 0 -20 4 -23 35 -19 27 3 35 1 35 -12 0 -14 -17 -16 -120 -17
-66 -1 -126 -2 -132 -3 -13 -1 -13 6 -3 84 5 33 4 41 -4 30 -9 -13 -12 -11
-18 9 -5 20 -8 22 -17 9 -6 -8 -19 -17 -28 -21 -14 -5 -21 6 -37 61 -13 44
-18 82 -15 112 4 32 3 41 -5 30 -8 -12 -11 -12 -17 3 -3 10 -2 28 4 40 l10 22
10 -25 c11 -25 11 -24 11 8 1 23 -3 32 -15 32 -9 0 -18 -8 -21 -19 -3 -13 -11
-17 -25 -13 -18 4 -19 2 -12 -19 10 -26 9 -168 -1 -206 -3 -14 -13 -23 -24
-23 -10 0 -24 -6 -30 -14 -10 -12 -8 -13 9 -9 31 8 38 -10 27 -72 -11 -59 -22
-69 -37 -32 -9 22 -9 22 -9 0 -1 -21 -14 -25 -37 -10 -6 3 -14 3 -18 -1 -4 -4
-23 -8 -42 -8 -31 -2 -34 1 -40 34 -4 19 -4 85 -1 146 3 64 2 118 -3 126 -7
11 -10 2 -10 -29 0 -34 -3 -42 -15 -37 -8 3 -15 1 -15 -3 0 -5 7 -12 16 -15
14 -5 16 -21 12 -106 -2 -60 -9 -105 -16 -112 -9 -9 -12 -9 -12 1 0 10 -3 11
-14 2 -7 -6 -20 -9 -27 -6 -20 7 -38 -7 -42 -35 -3 -20 -10 -24 -28 -22 -13 1
-34 2 -46 2 l-23 0 0 260 c0 256 0 260 21 260 12 0 17 4 14 11 -4 6 -9 8 -12
5 -3 -3 -13 -1 -23 4 -10 5 -20 6 -24 2 -4 -3 -24 -6 -44 -5 l-37 2 38 -8 c20
-4 40 -10 43 -14 7 -7 6 -387 -2 -497 l-7 -85 -66 -2 c-36 -1 -79 -3 -96 -3
-16 -1 -60 0 -97 1 -76 2 -69 -8 -83 113 -3 28 -11 53 -18 58 -8 5 -7 8 6 8
13 0 17 8 16 33 -2 30 -2 30 -6 4 -2 -15 -9 -25 -14 -22 -12 8 -12 82 1 90 5
3 7 12 3 20 -5 15 13 163 24 191 8 21 21 17 26 -9 2 -12 5 -4 5 18 0 22 -2 34
-5 28 -10 -25 -23 -12 -23 22 0 40 16 46 30 13 8 -21 9 -20 9 8 1 36 -24 53
-38 26 -5 -9 -17 -78 -26 -152 -18 -138 -26 -163 -50 -154 -7 3 -19 -4 -25
-16 -11 -20 -10 -21 10 -10 35 19 42 1 29 -83 -11 -75 -12 -77 -40 -77 -16 0
-29 -4 -29 -10 0 -5 -11 -10 -25 -10 -21 0 -29 9 -46 47 -11 27 -23 72 -26
101 -5 43 -3 52 10 52 9 0 17 -11 20 -27 3 -23 4 -21 6 9 1 29 -2 36 -14 32
-11 -5 -15 1 -15 17 0 30 19 158 26 182 8 26 22 21 27 -10 3 -23 4 -21 6 9 1
29 -2 36 -14 32 -11 -5 -15 2 -16 27 l-1 34 -8 -35 c-5 -19 -14 -83 -21 -142
-11 -105 -12 -107 -41 -117 -33 -12 -30 -32 4 -23 20 5 21 3 14 -39 -4 -24 -9
-51 -11 -59 -2 -8 -4 -21 -4 -28 -1 -9 -6 -10 -20 -2 -13 7 -22 7 -26 0 -3 -5
-14 -10 -24 -10 -14 0 -16 7 -13 36 3 25 1 35 -6 30 -15 -9 -26 37 -17 72 4
15 9 52 11 82 8 120 42 214 45 128 1 -26 3 -22 9 17 14 89 12 127 -7 123 -9
-2 -18 -9 -21 -16 -2 -7 2 -11 10 -10 17 4 18 -64 1 -69 -9 -3 -13 6 -13 28 0
63 -10 21 -26 -112 -15 -122 -25 -156 -45 -143 -4 2 -13 -4 -20 -13 -12 -14
-11 -15 9 -9 29 10 34 -6 25 -74 -6 -40 -13 -56 -26 -58 -11 -2 -17 3 -17 15
0 14 -2 15 -9 4 -5 -8 -16 -11 -26 -8 -14 6 -15 17 -10 82 5 67 4 74 -11 68
-15 -6 -16 1 -10 68 10 99 19 142 33 146 6 2 13 -8 16 -24 3 -23 4 -22 6 9 1
29 -2 36 -14 32 -12 -5 -15 3 -16 32 -1 39 -1 38 -11 -11 -5 -27 -15 -92 -22
-144 -11 -89 -14 -96 -41 -111 -16 -9 -30 -22 -33 -30 -2 -9 0 -11 5 -5 4 6
18 11 31 13 23 3 27 -10 14 -56 -7 -22 -8 -22 -49 14 -37 32 -43 43 -44 78 -1
30 -3 35 -7 19 -5 -15 -11 -20 -20 -14 -11 6 -10 25 2 101 17 107 36 141 36
65 0 -68 7 -53 13 30 3 39 3 60 0 48 -2 -13 -11 -23 -19 -23 -8 0 -14 9 -13
23 0 24 17 69 18 50 1 -7 8 -13 17 -13 11 0 14 5 10 16 -3 9 -6 18 -6 20 0 2
-6 4 -14 4 -20 0 -35 -50 -51 -179 -7 -62 -16 -115 -19 -119 -4 -3 -19 6 -34
20 -28 25 -136 108 -161 123 -10 6 -12 4 -7 -4 4 -6 2 -19 -5 -27 -8 -10 -10
-53 -7 -159 3 -80 3 -147 0 -149 -2 -3 -14 0 -25 6 -16 8 -22 8 -25 -1 -2 -6
-12 -11 -22 -11 -34 0 -50 -12 -50 -36 0 -26 -18 -31 -49 -14 -13 6 -24 5 -37
-5 -18 -14 -18 -14 6 -16 14 0 42 0 63 1 20 1 51 -1 67 -5 30 -6 30 -8 30 -71
l0 -64 -75 0 c-68 0 -75 2 -75 20 0 11 -4 20 -10 20 -5 0 -10 -9 -10 -20 0
-21 -15 -27 -25 -10 -4 6 -78 10 -191 10 -157 0 -184 2 -184 15 0 8 -8 15 -19
15 -12 0 -22 11 -29 33 l-11 32 2 -30 2 -30 -270 1 c-148 1 -306 2 -351 3
l-81 1 -3 78 c-1 42 -5 147 -9 232 l-6 155 -9 -232 -8 -233 -704 0 c-402 0
-705 -4 -708 -9 -9 -14 -88 -19 -116 -7 -23 9 -202 26 -296 27 l-41 0 -6 157
c-4 86 -7 201 -7 255 0 58 -4 97 -10 97 -6 0 -10 -92 -10 -256 l0 -256 -28 7
c-16 3 -41 1 -57 -5 -21 -8 -30 -8 -35 1 -6 8 -9 8 -11 0 -3 -9 -12 -9 -33 -1
-16 6 -37 8 -46 5 -10 -3 -21 -1 -25 5 -3 5 -24 10 -46 10 -35 0 -39 3 -39 24
0 22 -5 25 -82 35 -46 6 -105 13 -133 15 -27 2 -84 14 -125 25 -44 12 -223 37
-434 61 -197 21 -360 41 -361 42 -1 2 -28 138 -59 303 -49 264 -56 315 -56
425 0 131 -6 155 -33 144 -15 -5 -17 -26 -17 -163 0 -126 -7 -205 -36 -411
-20 -140 -40 -259 -44 -264 -5 -4 -100 1 -217 13 -114 11 -291 25 -393 31
-102 6 -216 13 -255 15 -38 3 -208 5 -377 5 -183 0 -309 4 -313 10 -3 5 -7 57
-8 115 -2 102 -2 105 -24 105 -23 0 -23 -2 -23 -114 l0 -114 -167 -4 c-93 -2
-170 -2 -172 -1 -2 2 -33 148 -68 325 -55 281 -64 346 -73 503 -5 99 -10 186
-10 194 0 8 -3 11 -7 8 -3 -4 -12 -2 -18 3 -9 7 -16 6 -25 -5 -10 -12 -12 -54
-7 -178 5 -149 3 -187 -34 -482 -22 -176 -42 -332 -45 -347 -7 -35 3 -35 -519
-48 -236 -6 -484 -13 -550 -15 -194 -8 -508 -15 -841 -21 l-312 -5 -14 63
c-11 52 -17 63 -33 63 -22 0 -22 -6 -10 -88 l8 -47 -52 0 c-36 0 -53 4 -57 15
-6 14 -41 31 -56 27 -5 -1 -8 12 -8 29 0 26 -3 30 -22 27 -19 -2 -22 -8 -20
-31 l4 -28 -74 1 c-99 2 -98 2 -98 -15 0 -8 -4 -15 -10 -15 -7 0 -10 -270 -10
-790 l0 -790 11000 0 11000 0 0 494 c0 386 -3 495 -12 499 -10 4 -10 6 0 6 6
1 12 10 12 20 0 11 -6 22 -12 24 -10 4 -10 6 0 6 8 1 12 17 12 47 0 25 -4 43
-9 39 -5 -3 -12 -1 -16 5 -3 5 1 10 9 10 13 0 16 14 16 80 0 44 -3 80 -8 80
-4 0 -18 -7 -31 -16 -19 -14 -27 -14 -46 -4 -13 7 -35 9 -53 5 -17 -3 -39 -2
-50 4 -13 7 -22 7 -30 -1 -35 -35 -191 -20 -184 18 2 9 27 79 57 155 29 77 50
137 46 135 -4 -3 -30 -61 -56 -131 -27 -69 -53 -125 -57 -125 -3 0 -9 12 -11
28 -2 15 -3 8 -2 -15 2 -35 -1 -44 -18 -49 -13 -4 -23 -2 -25 5 -3 8 -8 6 -16
-5 -7 -9 -18 -14 -24 -10 -14 9 41 150 61 154 11 2 15 15 14 48 -1 24 -2 44
-3 44 0 0 -18 -43 -39 -95 -21 -52 -42 -95 -46 -95 -4 0 -10 10 -12 23 -3 13
-5 7 -6 -16 -1 -35 -3 -37 -16 -23 -14 14 -18 14 -35 -2 -11 -9 -20 -22 -20
-29 0 -7 -4 -13 -8 -13 -15 0 -52 37 -45 44 3 3 0 6 -7 6 -7 0 -23 -11 -36
-25 -13 -14 -30 -25 -39 -25 -9 0 -15 -9 -15 -22 -1 -21 -2 -21 -11 -5 -13 22
-54 24 -45 1 5 -13 1 -15 -19 -12 -14 3 -25 1 -25 -4 0 -5 -5 -6 -10 -3 -6 4
-8 11 -5 16 4 5 -5 9 -19 9 -14 0 -26 -4 -26 -10 0 -15 -129 -4 -148 13 -10 8
-26 17 -36 21 -16 5 -17 4 -6 -9 11 -13 9 -15 -12 -15 -37 0 -94 30 -77 41 11
7 10 9 -4 9 -12 0 -23 -12 -30 -31 -12 -30 -14 -31 -59 -26 -27 2 -48 0 -48
-5 0 -5 -4 -6 -10 -3 -5 3 -7 0 -4 -8 3 -10 -4 -17 -20 -21 -18 -4 -26 -14
-27 -29 -1 -20 -2 -20 -6 -2 -3 11 -16 30 -29 43 -21 20 -30 22 -72 16 -50 -7
-123 -6 -131 1 -2 3 19 69 48 148 61 163 68 186 54 172 -6 -5 -23 -41 -38 -80
-15 -38 -31 -74 -35 -80 -4 -5 -11 -25 -15 -43 -3 -17 -11 -32 -16 -32 -5 0
-9 -9 -9 -21 0 -11 -4 -18 -9 -15 -5 4 -10 191 -10 443 -2 420 -2 438 -21 458
-11 12 -20 30 -20 40 0 10 -5 34 -12 52 -10 27 -10 38 0 53 7 11 12 28 12 38
0 9 8 29 17 42 10 14 16 36 15 50 -1 14 21 106 48 205 28 99 60 214 71 255 11
41 38 136 59 210 21 74 61 221 90 327 44 158 56 190 69 186 13 -4 13 -3 2 5
-11 8 -4 45 43 215 57 204 61 242 31 267 -17 14 -116 24 -169 16 -38 -6 -43
-10 -39 -27 4 -14 -2 -28 -18 -42 -13 -12 -24 -26 -24 -32 -2 -63 -54 -255
-78 -287 -14 -18 -18 -34 -13 -53 10 -38 -22 -145 -43 -145 -13 0 -13 -2 -3
-9 11 -7 4 -40 -33 -167 -61 -210 -84 -285 -97 -311 -6 -12 -11 -40 -12 -62 0
-23 -4 -41 -8 -41 -3 0 -14 -25 -23 -55 -8 -30 -18 -55 -20 -55 -3 0 -15 6
-26 13 -18 10 -23 9 -36 -10 -19 -28 -43 -30 -43 -3 0 13 -7 20 -20 20 -11 0
-25 -9 -32 -20 -14 -22 -38 -27 -39 -7 0 6 -6 0 -13 -15 -6 -15 -23 -40 -36
-55 l-25 -28 31 28 c17 15 33 25 36 21 3 -3 -21 -62 -54 -132 -52 -111 -69
-135 -127 -192 -37 -36 -49 -48 -26 -27 67 61 70 52 19 -59 -32 -70 -37 -76
-45 -56 -6 15 -17 22 -35 22 -20 0 -25 4 -20 16 4 10 -7 5 -28 -12 -48 -40
-50 -50 -10 -46 26 3 34 0 34 -12 0 -12 -10 -16 -39 -16 -34 0 -40 4 -49 28
-10 28 -11 29 -84 23 -10 0 -18 -9 -18 -19 0 -13 -9 -19 -35 -20 -39 -3 -46
11 -15 30 11 7 20 17 20 22 0 5 -9 1 -20 -9 -21 -19 -42 -13 -22 7 7 7 12 24
12 40 0 15 10 36 23 48 14 14 17 20 7 18 -8 -2 -14 2 -13 8 5 27 76 306 93
364 10 36 40 149 66 252 39 155 49 185 63 181 14 -4 14 -3 1 6 -14 10 2 87 82
389 5 18 13 30 18 27 4 -3 6 3 3 14 -2 10 19 109 47 220 73 282 74 279 -175
271 -19 0 -25 -3 -17 -9 17 -10 1 -54 -28 -74 -12 -8 -17 -16 -12 -18 16 -6
-47 -276 -67 -288 -14 -9 -25 -61 -13 -61 10 0 7 -18 -19 -113 -7 -25 -14 -35
-22 -30 -9 5 -9 3 -1 -8 8 -11 -3 -65 -48 -229 -55 -202 -83 -303 -111 -410
-10 -38 -16 -45 -40 -48 -15 -2 -32 -12 -37 -23 -14 -26 -38 -24 -42 3 -4 33
-35 35 -50 3 -7 -15 -18 -25 -27 -23 -10 2 -64 -47 -136 -122 l-120 -125 112
109 c61 59 115 107 121 105 9 -4 -108 -279 -131 -308 -7 -7 -12 -19 -12 -25 0
-6 -11 -37 -24 -68 -23 -55 -25 -57 -55 -51 -17 3 -33 8 -35 10 -3 2 11 20 30
40 23 26 17 22 -21 -12 -30 -27 -61 -57 -68 -67 -16 -22 -32 -23 -32 -3 0 8
-3 16 -7 16 -12 2 -46 2 -70 1 -28 -2 -31 -32 -4 -32 11 0 23 -5 26 -11 5 -7
-13 -8 -57 -3 -34 4 -64 8 -66 9 -1 1 44 47 100 102 57 55 114 113 128 129 13
16 -41 -35 -121 -113 -80 -79 -152 -143 -160 -143 -8 0 -31 -5 -51 -11 -34 -9
-39 -14 -44 -48 -6 -37 -7 -38 -24 -21 -48 48 -63 250 -19 250 16 0 16 3 5 25
-11 22 -9 42 17 148 60 246 168 704 187 787 10 47 34 150 54 230 63 262 118
505 118 527 1 30 -27 56 -52 48 -12 -4 -20 -2 -20 5 0 6 -15 10 -32 9 -18 -1
-41 2 -50 6 -11 4 -18 3 -18 -4 0 -7 -15 -10 -38 -7 -36 3 -38 2 -34 -21 2
-13 -2 -31 -10 -41 -8 -9 -27 -78 -42 -152 -16 -74 -37 -152 -48 -174 -11 -23
-17 -49 -14 -65 3 -14 -1 -53 -9 -86 -9 -33 -18 -73 -21 -90 -7 -34 -99 -412
-114 -465 -13 -48 -50 -198 -50 -205 0 -3 -8 -5 -19 -5 -10 0 -26 -11 -35 -25
-18 -28 -36 -25 -36 6 0 26 -35 25 -54 -2 -10 -15 -21 -20 -35 -16 -15 4 -21
0 -21 -11 0 -9 -30 -48 -67 -87 l-68 -70 73 70 c39 38 72 63 72 55 0 -21 -130
-332 -146 -351 -8 -9 -12 -18 -9 -21 12 -11 -27 -88 -44 -88 -31 0 -32 13 -4
44 19 22 16 20 -12 -6 -23 -21 -46 -38 -51 -38 -6 0 -16 -12 -22 -26 -10 -20
-10 -24 0 -17 27 16 48 13 48 -7 0 -16 -7 -20 -30 -20 -26 0 -31 5 -36 30 -6
28 -9 30 -55 30 -42 0 -49 -3 -49 -20 0 -14 7 -20 22 -20 16 0 19 -3 11 -11
-8 -8 -28 -8 -67 -2 -47 8 -65 7 -123 -13 l-68 -23 -7 -53 c-4 -29 -9 -59 -10
-65 -2 -16 -15 -17 -20 -1 -3 9 -6 9 -11 1 -4 -6 0 -18 8 -26 18 -19 19 -29 3
-45 -8 -8 -15 -9 -25 0 -35 29 -82 6 -83 -41 0 -16 -4 -21 -15 -18 -8 4 -17 2
-20 -3 -4 -6 27 -10 77 -11 46 -1 99 -3 118 -6 19 -2 48 -4 63 -4 24 0 28 -3
25 -22 -4 -27 -35 -35 -40 -10 -3 15 -5 15 -10 -4 -5 -20 -2 -23 23 -23 23 0
30 -5 35 -27 5 -19 -2 -657 -9 -759 0 -8 -18 -10 -48 -8 -34 2 -53 -1 -64 -12
-10 -10 -15 -11 -15 -3 0 8 -17 10 -61 6 -56 -5 -61 -4 -56 14 3 10 1 19 -4
19 -5 0 -9 -11 -9 -25 0 -24 -2 -25 -64 -25 -44 0 -67 -5 -76 -15 -7 -8 -21
-15 -32 -15 -10 0 -17 -3 -15 -7 3 -5 -2 -14 -10 -22 -14 -12 -15 -12 -11 0 5
14 -23 40 -54 52 -15 5 -17 49 -18 544 l-1 538 -26 37 c-15 23 -23 45 -20 58
3 11 2 20 -3 20 -8 0 -20 37 -25 77 -2 12 -6 26 -9 32 -4 6 0 38 8 73 17 73
81 387 102 499 7 42 27 139 44 215 17 77 33 154 35 172 8 54 75 376 82 392 3
8 5 18 5 22 -1 4 18 105 43 223 47 229 47 252 4 275 -23 13 -159 22 -196 14z
m152 -217 c-3 -29 -14 -90 -23 -137 l-18 -85 -75 4 c-40 2 -76 5 -78 7 -5 5
40 235 49 254 6 12 24 14 80 12 l71 -4 -6 -51z m1535 -55 c0 -15 -9 -65 -20
-112 -11 -47 -22 -95 -25 -107 -5 -19 -11 -22 -65 -21 -32 1 -65 5 -72 9 -9 6
-6 35 16 131 16 68 30 125 31 128 2 3 33 3 69 2 64 -4 66 -5 66 -30z m1100
-32 c21 0 21 8 -16 -148 l-27 -113 -66 7 c-36 3 -67 7 -68 8 -3 2 53 220 62
245 4 10 17 12 52 7 25 -3 54 -6 63 -6z m920 -62 c0 -13 -13 -70 -29 -128
l-28 -105 -63 3 c-35 1 -65 3 -66 5 -2 2 48 195 61 235 3 8 25 12 65 12 56 0
60 -2 60 -22z m-3695 -124 c13 -13 21 -14 41 -6 22 11 24 9 24 -12 0 -37 -22
-126 -31 -126 -5 0 -6 -6 -3 -14 3 -8 -6 -67 -21 -131 -14 -64 -24 -122 -22
-128 2 -6 14 38 27 96 40 184 33 109 -10 -110 -23 -114 -44 -216 -46 -226 -8
-27 -22 -11 -18 20 4 26 1 23 -13 -17 -3 -8 -7 -28 -8 -43 -2 -15 -5 -31 -9
-34 -6 -6 -117 -5 -123 1 -2 2 28 162 66 356 70 349 81 388 118 389 6 1 19 -6
28 -15z m1519 -70 c5 -12 14 -15 35 -11 16 3 31 4 34 1 7 -7 -150 -628 -161
-632 -4 -1 -7 -15 -4 -31 6 -41 -16 -57 -71 -53 -29 3 -47 9 -47 17 0 7 11 61
25 121 127 555 133 575 151 589 25 19 31 18 38 -1z m1112 -55 c3 -6 19 -9 35
-5 16 3 29 1 29 -3 0 -30 -26 -114 -36 -118 -7 -3 -10 -11 -7 -19 8 -21 -117
-466 -134 -480 -9 -8 -10 -13 -3 -16 8 -2 7 -12 -1 -36 -10 -30 -14 -32 -60
-32 -28 0 -49 5 -49 11 0 28 175 695 184 701 16 11 34 10 42 -3z m937 -45 c34
8 35 -6 7 -89 -11 -33 -49 -161 -86 -285 -36 -124 -72 -230 -80 -236 -10 -8
-11 -13 -4 -16 8 -2 8 -11 1 -32 -11 -26 -14 -27 -54 -21 -23 4 -43 9 -45 10
-2 2 15 70 38 151 22 82 64 232 91 334 51 185 71 225 95 192 7 -10 19 -13 37
-8z m-3750 -736 c3 -10 7 -10 19 0 12 10 17 10 26 -1 8 -9 6 -36 -9 -97 -10
-47 -21 -97 -24 -113 -11 -68 -30 -62 -45 16 -18 98 -18 102 8 101 12 -1 22 3
22 7 0 5 -8 9 -19 9 -13 0 -20 9 -24 33 -5 34 7 57 28 57 8 0 15 -6 18 -12z
m1492 -48 c3 -6 18 -8 32 -6 25 5 25 4 20 -37 -9 -60 -27 -118 -35 -113 -4 2
-8 -10 -8 -27 -3 -55 -16 -117 -26 -117 -5 0 -8 8 -7 18 2 9 -2 26 -8 37 -5
11 -13 50 -17 88 -6 56 -4 67 9 67 8 0 15 -4 15 -8 0 -5 7 -17 16 -28 14 -18
15 -18 4 5 -10 19 -9 25 1 32 11 7 11 9 -2 9 -8 0 -23 16 -32 35 -15 32 -15
35 1 44 22 13 29 13 37 1z m-1645 -39 c0 -11 -5 -23 -11 -26 -6 -4 -8 -14 -5
-22 7 -18 -26 -175 -47 -223 -15 -35 -15 -34 -16 59 -1 90 0 96 27 125 l27 31
-27 -24 -28 -24 0 61 0 62 40 0 c33 0 40 -3 40 -19z m2768 -1 c22 0 24 -3 18
-32 -13 -65 -27 -108 -35 -108 -5 0 -7 -8 -5 -18 3 -9 -3 -35 -12 -57 -10 -22
-16 -50 -15 -62 1 -13 -2 -23 -8 -23 -6 0 -11 9 -11 20 0 30 -1 34 -9 45 -16
20 -22 65 -9 65 8 0 9 3 3 8 -5 4 -11 24 -12 45 -3 41 9 47 39 20 18 -16 18
-16 12 3 -4 10 -13 28 -21 39 -7 11 -13 26 -13 34 0 19 33 42 45 30 5 -5 20
-9 33 -9z m-2884 -152 c-15 -15 -15 -18 -2 -13 12 5 16 -5 21 -47 11 -87 8
-120 -15 -185 -17 -49 -26 -63 -42 -64 -20 0 -20 -1 -2 -8 11 -4 15 -10 10
-13 -14 -8 -114 -10 -114 -2 0 14 42 149 50 159 4 6 10 26 14 45 3 19 19 48
34 64 15 17 19 24 10 17 -24 -18 -23 -8 8 91 35 110 38 114 42 39 2 -49 -1
-68 -14 -83z m3746 132 c0 -5 11 -10 25 -10 14 0 25 -4 25 -8 0 -8 -23 -84
-37 -122 -3 -8 -7 -26 -9 -38 -1 -13 -10 -35 -20 -50 -9 -14 -18 -35 -19 -46
-1 -12 -3 -25 -4 -31 -4 -21 -40 111 -37 135 8 60 18 82 37 77 23 -6 24 2 3
32 -13 18 -14 28 -5 47 10 23 41 34 41 14z m-3545 -137 c0 -50 3 -86 7 -80 4
7 9 -13 10 -43 l1 -55 6 60 c5 51 7 55 13 30 4 -16 6 -41 4 -55 -2 -14 -4 -31
-5 -39 0 -8 -4 -11 -8 -8 -12 13 -33 -16 -33 -47 0 -21 3 -27 9 -17 5 7 6 22
4 32 -7 27 16 24 27 -3 8 -21 9 -20 9 9 1 17 6 35 12 39 8 5 10 -11 5 -56 -4
-35 -10 -68 -13 -74 -4 -6 -8 -26 -10 -45 -2 -18 -10 -43 -18 -55 -15 -20 -15
-20 -16 -1 0 11 -3 14 -6 7 -2 -6 -9 -10 -14 -6 -5 3 -9 0 -9 -5 0 -13 -96
-15 -104 -3 -2 4 2 37 10 72 8 36 16 76 18 90 9 50 67 346 73 364 12 43 28
-19 28 -111z m2390 30 c-4 -21 -12 -41 -18 -45 -8 -5 -7 -8 4 -8 12 0 15 -8
12 -32 -3 -27 -1 -29 6 -13 7 15 9 8 9 -30 0 -43 -1 -46 -8 -20 -7 26 -8 24
-9 -20 -1 -72 -86 -255 -118 -255 -29 0 -34 11 -23 46 6 16 29 88 51 159 23
72 46 136 52 143 5 7 7 15 4 18 -8 8 23 94 35 94 6 0 8 -14 3 -37z m888 -2 c3
-11 -2 -30 -11 -42 -14 -21 -14 -22 1 -16 15 6 17 -2 17 -56 0 -44 -3 -58 -10
-47 -7 11 -10 8 -10 -16 0 -42 -105 -264 -125 -264 -9 0 -15 9 -15 21 0 24 98
329 112 345 5 7 8 16 6 20 -4 16 13 74 22 74 4 0 10 -9 13 -19z m-1791 -53 c1
-24 2 -55 2 -70 1 -15 10 -34 21 -42 11 -8 16 -18 12 -22 -4 -5 -12 -2 -16 5
-6 9 -8 4 -8 -15 0 -16 2 -23 4 -16 9 23 23 12 23 -19 0 -23 -4 -30 -15 -26
-8 4 -17 2 -20 -3 -6 -9 11 -14 43 -13 15 1 14 -25 -8 -135 -13 -68 -31 -86
-56 -56 -14 17 -15 17 -10 2 5 -15 -1 -18 -39 -18 -24 0 -47 5 -50 10 -8 14
16 120 27 120 5 0 6 5 3 10 -6 10 11 104 23 125 3 5 7 20 8 33 6 50 38 172 46
172 4 0 9 -19 10 -42z m-179 -50 c4 -35 3 -79 -2 -98 -10 -41 -43 -114 -53
-118 -5 -2 -8 -11 -8 -20 -1 -30 -26 -52 -59 -52 -39 0 -39 5 -1 122 17 51 35
110 40 130 10 36 54 98 70 98 4 0 10 -28 13 -62z m1269 -35 c8 -17 7 -25 -6
-38 -9 -9 -16 -22 -15 -28 0 -9 2 -8 6 1 8 19 23 14 23 -8 0 -11 5 -20 10 -20
6 0 10 -11 10 -25 0 -17 -6 -25 -17 -25 -15 0 -15 -1 1 -19 9 -10 14 -25 10
-35 -7 -19 -21 -21 -26 -4 -2 6 -10 9 -17 7 -9 -3 -5 -11 13 -23 27 -17 28
-17 33 3 3 12 10 21 15 21 9 0 5 -47 -8 -92 -5 -18 -29 -25 -37 -10 -2 4 -2 1
-1 -5 2 -7 -5 -13 -14 -13 -10 0 -24 6 -31 13 -9 7 -11 8 -8 1 4 -7 4 -26 1
-43 -5 -24 -12 -31 -30 -31 -12 0 -26 5 -29 10 -8 14 16 120 27 120 5 0 6 4 3
10 -3 5 1 35 10 67 9 32 23 87 31 123 7 36 17 72 20 80 6 13 7 13 11 0 2 -8 9
-25 15 -37z m598 -12 c0 -5 -20 -72 -45 -148 l-45 -138 -35 -1 c-19 0 -35 3
-35 8 0 5 15 39 34 76 19 37 46 94 61 126 14 33 30 65 36 73 13 15 29 17 29 4z
m280 -37 c0 -8 -4 -12 -10 -9 -5 3 -10 -3 -11 -14 -2 -100 0 -154 7 -161 5 -5
9 24 8 68 -1 42 1 57 3 32 2 -25 11 -48 18 -53 11 -6 12 -14 4 -34 -5 -14 -7
-28 -4 -31 2 -3 9 6 14 19 19 49 21 -5 4 -76 -20 -79 -42 -95 -67 -48 l-16 28
6 -27 c6 -27 5 -28 -35 -28 -40 0 -40 0 -34 33 10 54 22 79 34 71 8 -5 9 -2 1
11 -7 13 -4 37 10 84 11 36 24 85 30 109 9 40 38 61 38 26z m-154 -131 c11 -8
13 -18 8 -35 -4 -13 -7 -31 -5 -40 1 -9 -3 -35 -9 -57 -9 -36 -14 -41 -40 -41
-17 0 -30 -5 -30 -12 0 -16 -72 -18 -77 -2 -2 6 8 27 22 48 14 20 25 40 25 44
0 19 26 62 38 62 7 0 10 5 7 11 -4 5 -1 25 7 42 l13 32 6 -55 6 -55 3 75 c2
50 5 62 7 35 2 -22 11 -45 19 -52z m-881 17 c15 -12 9 -50 -9 -50 -6 0 -5 -4
3 -9 11 -7 11 -17 1 -60 -10 -44 -15 -51 -36 -51 -14 0 -27 -7 -30 -15 -7 -17
-49 -20 -59 -5 -3 6 5 31 18 58 13 26 30 59 37 75 14 28 35 36 43 15 3 -7 6
14 8 47 1 33 4 48 6 33 2 -14 10 -32 18 -38z m-2299 -270 c2 -38 -7 -62 -54
-145 -31 -55 -70 -126 -86 -157 -17 -32 -34 -58 -39 -58 -4 0 -6 73 -5 163 l3
162 25 2 c14 0 33 1 43 2 14 1 16 6 11 28 -9 34 11 49 63 48 l38 0 1 -45z
m1450 10 c8 0 14 -10 14 -26 0 -23 -3 -26 -26 -21 -20 4 -28 -1 -36 -22 -6
-14 -10 -29 -10 -34 1 -4 -10 -13 -25 -19 -28 -12 -28 -12 15 -16 23 -2 42 -5
42 -6 0 -4 -159 -259 -166 -265 -2 -2 -4 73 -4 166 l0 171 48 0 c85 0 81 -1
75 36 -4 28 -2 35 13 39 11 2 25 3 32 1 8 -2 20 -4 28 -4z m-15447 -260 c24
-129 45 -247 48 -262 l6 -28 -88 0 -87 0 6 43 c3 23 17 145 32 270 15 125 30
224 34 220 4 -4 26 -114 49 -243z m17408 183 c-3 -25 -30 -70 -98 -161 -52
-70 -105 -144 -119 -164 -13 -21 -28 -38 -32 -38 -5 0 -8 70 -8 155 l0 155 27
11 c14 5 56 11 92 12 l66 2 -3 32 c-4 34 11 43 56 35 19 -4 22 -10 19 -39z
m-3685 -28 c3 -22 7 -71 7 -108 1 -52 -2 -69 -15 -74 -8 -3 -13 -12 -10 -19 3
-9 -2 -14 -14 -14 -11 0 -20 4 -20 9 0 16 -40 20 -54 5 -19 -18 -30 -18 -22 1
3 9 0 15 -9 15 -7 0 -13 -8 -13 -17 1 -10 -2 -27 -5 -38 -7 -19 -2 -21 69 -23
42 -1 80 -5 85 -8 10 -6 12 -421 3 -501 -7 -51 -8 -53 -43 -60 -20 -4 -42 -6
-48 -5 -7 2 -13 -2 -13 -8 0 -5 -6 -10 -12 -10 -10 0 -13 25 -12 97 l2 98 -7
-96 c-3 -58 -11 -102 -20 -112 -9 -12 -10 -17 -2 -17 7 0 10 -4 7 -9 -10 -16
-64 11 -70 34 -8 30 -8 886 -1 893 3 4 10 0 15 -8 7 -11 10 -12 10 -2 0 7 5
10 10 7 13 -8 13 -48 -1 -62 -9 -9 2 -11 42 -10 46 2 54 5 54 22 0 34 26 63
54 62 22 -2 27 -8 33 -42z m-331 3 c-5 -13 -40 -84 -78 -158 l-68 -135 -3 104
c-1 58 0 111 2 118 3 7 21 13 43 13 21 0 45 5 53 10 10 6 11 10 3 10 -7 0 -13
11 -13 24 0 18 7 26 23 29 45 9 47 8 38 -15z m39 -177 l0 -188 -46 -7 c-95
-13 -124 -9 -134 20 -10 26 -2 45 102 232 10 17 29 55 43 82 14 28 27 50 29
50 3 0 5 -85 6 -189z m1730 68 c0 -66 -4 -109 -10 -109 -5 0 -10 5 -10 10 0 6
-11 10 -25 10 -14 0 -25 -4 -25 -10 0 -5 -5 -10 -11 -10 -6 0 -9 7 -5 15 3 8
0 15 -7 15 -7 0 -18 -18 -24 -40 -10 -40 -10 -41 16 -39 14 1 43 1 64 1 l38
-2 -2 -321 c-1 -280 -3 -321 -17 -326 -9 -4 -22 3 -34 16 -14 18 -18 20 -18 7
0 -9 -7 -16 -15 -16 -11 0 -15 -13 -17 -52 l-2 -53 -3 52 c-4 48 -6 52 -31 55
l-27 3 -3 419 -3 418 48 -6 c53 -7 90 7 63 23 -12 8 -9 14 15 35 16 14 32 23
37 20 4 -3 8 -54 8 -115z m-1160 -69 c0 -99 1 -183 3 -187 1 -5 -29 -11 -68
-14 -51 -5 -76 -3 -92 7 -41 26 -38 47 25 156 33 57 73 129 88 161 16 31 32
57 36 57 4 0 8 -81 8 -180z m859 161 c1 9 7 16 15 16 13 0 11 -36 -4 -47 -3
-3 -39 -62 -80 -132 -41 -71 -78 -128 -82 -128 -4 0 -8 52 -8 115 0 87 3 115
13 114 6 -1 30 0 52 1 31 1 35 4 18 8 -13 4 -32 15 -44 26 -22 18 -22 18 -16
-3 6 -24 -11 -29 -20 -6 -7 21 -2 25 36 30 19 3 31 0 31 -7 0 -7 6 -5 13 4 16
22 60 27 69 8 6 -13 7 -13 7 1z m69 -185 l4 -184 -101 -7 c-56 -4 -104 -6
-106 -4 -2 2 -6 15 -10 29 -6 24 34 97 144 265 14 22 32 53 39 69 7 16 15 26
19 23 3 -4 8 -89 11 -191z m1040 161 c-8 -16 -12 -17 -20 -6 -8 11 -9 11 -5
-2 3 -9 -9 -39 -26 -68 -75 -121 -140 -221 -143 -221 -2 0 -4 54 -4 120 l0
120 45 0 c25 0 45 4 45 9 0 5 -12 8 -27 6 -26 -3 -63 13 -63 26 0 14 57 29 98
26 23 -1 42 0 42 3 0 3 16 5 34 6 32 1 34 -1 24 -19z m382 -6 c0 -4 8 -8 18
-9 59 -6 92 -16 92 -27 0 -22 -26 -35 -69 -33 -22 1 -44 -2 -48 -5 -3 -4 15
-7 40 -7 26 0 47 -3 47 -7 0 -9 -123 -194 -126 -190 -2 1 -4 65 -5 141 -1 102
2 141 12 146 13 9 39 2 39 -9z m-876 -173 c3 -101 6 -199 6 -218 0 -30 -17
-271 -19 -277 -1 -2 -10 -3 -21 -3 -11 0 -20 -7 -20 -15 0 -9 -6 -12 -15 -9
-11 4 -15 -1 -15 -17 0 -22 -5 -24 -55 -26 -50 -3 -55 -1 -61 21 -5 20 11 49
81 146 47 67 89 129 92 139 7 17 -36 -36 -110 -139 -26 -36 -56 -76 -67 -90
l-20 -25 0 156 0 156 108 10 107 10 -90 2 c-98 1 -109 5 -119 38 -5 17 10 48
66 135 41 62 84 130 97 151 43 70 49 54 55 -145z m118 156 c0 -8 1 -20 2 -26
1 -7 19 -15 41 -18 l40 -5 0 -345 0 -345 -22 1 c-12 0 -20 -2 -18 -6 2 -4 -2
-18 -9 -31 -11 -22 -11 -25 6 -26 10 -1 18 3 18 8 0 6 4 8 9 5 5 -3 7 -15 4
-26 -3 -11 -9 -18 -13 -15 -5 3 -15 2 -23 -1 -21 -8 -10 -34 14 -34 10 0 19
-7 19 -15 0 -16 -26 -10 -48 12 -7 7 -22 13 -33 13 -12 0 -19 7 -19 19 0 10
-7 22 -16 25 -17 7 -11 41 13 64 8 8 11 17 8 20 -3 4 -10 1 -14 -6 -8 -13 -21
325 -21 551 l0 127 28 1 c15 1 20 3 11 6 -15 4 -29 31 -29 59 0 16 50 4 52
-12z m1172 3 l-5 -22 10 23 c12 26 26 28 40 5 10 -17 10 -17 11 0 0 9 7 17 15
17 17 0 18 -2 9 -24 -3 -9 -12 -16 -19 -16 -7 0 -18 -13 -23 -29 -12 -34 -153
-240 -165 -241 -4 0 -6 51 -5 113 l3 112 45 12 45 11 -43 1 c-40 1 -43 3 -36
24 9 31 14 34 24 17 9 -13 10 -13 10 0 0 11 13 16 44 17 40 2 44 1 40 -20z
m126 -167 l0 -190 -119 0 c-160 0 -161 1 -36 174 52 72 106 142 120 155 14 13
25 29 25 37 0 8 2 14 4 14 3 0 5 -85 6 -190z m520 1 l0 -188 -100 -8 c-84 -5
-105 -4 -125 9 -14 9 -25 24 -25 32 0 9 39 69 88 134 48 64 102 138 119 163
18 26 35 47 38 47 3 0 5 -85 5 -189z m-1202 99 l3 -73 -44 6 -43 6 -11 -39
-10 -40 54 0 53 0 -2 -257 -3 -257 -35 -4 c-19 -3 -46 -5 -60 -6 l-25 -1 -3
353 -2 354 30 -7 c16 -4 39 -3 51 0 18 6 19 8 5 24 -14 15 -13 17 12 15 26 -1
27 -2 30 -74z m-204 -269 c-3 -3 -52 -7 -110 -8 l-104 -2 -6 25 c-6 21 8 48
76 148 102 148 120 172 120 157 0 -18 20 -13 22 7 1 9 4 -59 5 -152 2 -93 1
-172 -3 -175z m-13824 323 c0 -3 18 -105 40 -225 22 -121 40 -222 40 -226 0
-7 -141 5 -149 12 -7 8 53 445 61 445 5 0 8 -3 8 -6z m14358 -190 l3 -141 -90
-7 c-146 -11 -174 15 -114 102 21 30 49 72 63 93 47 70 76 96 106 95 l29 -1 3
-141z m517 -276 c0 -168 -4 -261 -11 -268 -5 -5 -24 -8 -41 -4 -27 5 -31 11
-37 51 -3 25 -6 142 -6 259 0 235 -4 221 65 220 l30 -1 0 -257z m-3629 137 c3
-8 -3 -30 -15 -48 -26 -43 -27 -60 -1 -27 l20 25 1 -30 c2 -69 -3 -242 -8
-262 -3 -14 -13 -23 -24 -23 -13 0 -19 8 -20 23 l-2 22 -4 -22 c-4 -20 -11
-23 -53 -23 -29 0 -50 5 -52 12 -5 13 24 77 71 156 17 29 31 58 31 65 0 7 -10
-4 -21 -23 -12 -19 -25 -36 -30 -38 -5 -2 -9 -10 -9 -18 0 -8 -7 -17 -15 -20
-8 -4 -15 -14 -15 -24 0 -10 -6 -23 -14 -29 -11 -9 -14 -3 -19 32 -3 23 -2 58
2 77 4 20 4 44 0 55 -10 25 -11 119 -2 128 3 4 44 7 90 7 64 0 85 -3 89 -15z
m571 -1 c7 -18 -16 -62 -109 -202 -38 -58 -70 -98 -73 -90 -2 7 -3 76 -2 153
l2 140 60 6 c107 10 115 10 122 -7z m921 -17 c3 -16 -127 -216 -187 -287 l-29
-35 1 165 2 165 95 5 c115 7 114 7 118 -13z m1082 -17 c0 -17 -182 -270 -195
-270 -2 0 -1 10 1 23 2 12 1 15 -2 7 -29 -67 -29 -68 -34 90 -6 181 -19 165
133 169 93 2 97 1 97 -19z m530 -6 c0 -14 -114 -165 -199 -264 l-30 -35 -1
152 c0 177 -12 161 130 165 96 3 100 3 100 -18z m353 2 c7 -17 -70 -116 -90
-116 -7 0 -13 -6 -13 -14 0 -7 -19 -39 -42 -70 -66 -89 -76 -72 -28 49 17 42
30 81 30 88 0 10 -67 -131 -74 -158 -7 -26 -19 -45 -27 -45 -12 0 -12 52 0 82
5 13 18 47 30 76 12 29 17 51 12 48 -5 -4 -15 -22 -21 -41 -19 -56 -31 -41
-28 33 l3 67 40 6 c22 3 77 7 121 8 63 1 83 -2 87 -13z m517 -13 c-1 -10 -21
-40 -47 -68 -34 -37 -44 -44 -40 -27 9 37 -2 25 -27 -30 -30 -67 -81 -126 -89
-103 -4 8 -11 15 -16 15 -6 0 -8 -7 -5 -15 8 -20 -4 -65 -16 -65 -15 0 -12
297 3 304 7 2 63 5 125 5 100 1 112 -1 112 -16z m-3390 -103 c0 -83 -2 -90
-27 -118 -47 -50 -53 -60 -47 -76 4 -11 0 -16 -12 -17 -11 -1 -32 -3 -47 -5
-21 -2 -30 3 -38 20 -10 20 -3 36 46 117 32 52 69 113 83 136 15 23 30 39 34
37 4 -3 8 -45 8 -94z m918 -47 c-3 -76 -9 -146 -13 -156 -7 -16 -9 -17 -25 -2
-14 12 -20 13 -26 4 -4 -8 -3 -10 4 -5 7 4 12 3 12 -2 0 -12 -148 -13 -155 -2
-7 11 184 300 198 300 6 0 8 -52 5 -137z m1072 -157 c-9 -25 -13 -27 -71 -25
-45 2 -66 7 -77 20 -9 10 -20 15 -25 12 -5 -3 -3 -9 4 -14 11 -7 10 -9 -3 -9
-26 0 -31 18 -12 48 9 15 56 79 103 142 l86 115 3 -131 c1 -72 -2 -143 -8
-158z m-15542 157 l3 -113 -194 0 -195 0 -6 26 c-5 19 2 40 28 82 25 41 33 65
29 84 l-5 27 88 4 c49 2 125 3 169 3 l80 -1 3 -112z m862 107 c342 -21 340
-20 341 -44 1 -17 2 -17 6 -3 6 22 46 21 243 -1 l145 -17 -3 -32 c-2 -17 1
-34 7 -38 6 -3 11 -12 11 -18 0 -9 -25 -10 -97 -6 -108 6 -125 9 -135 24 -5 6
-19 4 -39 -7 -38 -22 -73 -24 -66 -4 3 8 3 17 -1 21 -4 3 -7 14 -7 23 0 28
-151 53 -167 28 -6 -7 -10 -8 -15 -1 -9 11 -19 11 -99 0 -33 -5 -54 -3 -58 4
-5 7 -14 7 -31 -1 -24 -11 -35 -38 -15 -38 6 0 10 -3 10 -8 0 -4 -18 -6 -40
-4 -22 2 -46 -1 -53 -7 -9 -7 -24 -8 -48 -1 -37 11 -168 14 -193 4 -9 -3 -13
-10 -10 -15 9 -15 -16 -10 -32 6 -17 16 -44 10 -44 -11 0 -8 -4 -14 -10 -14
-5 0 -10 5 -10 10 0 6 -9 10 -20 10 -14 0 -20 -7 -20 -24 0 -23 -4 -24 -65
-28 -37 -2 -67 1 -69 7 -3 6 -14 0 -24 -12 -18 -21 -29 -23 -111 -23 l-91 0 0
63 c0 34 -3 86 -6 115 l-7 52 334 0 c184 0 404 -5 489 -10z m15574 -115 c-1
-63 -5 -128 -9 -144 -6 -29 -8 -30 -80 -33 -112 -5 -109 -9 -71 81 32 76 140
226 156 216 4 -2 6 -56 4 -120z m-17084 79 c0 -14 18 -51 39 -83 22 -32 36
-62 33 -67 -14 -19 -72 -54 -90 -54 -10 0 -32 6 -48 14 -33 15 -130 23 -383
30 -129 3 -176 8 -182 18 -5 7 -9 34 -9 59 0 35 5 51 23 67 21 20 38 22 257
30 393 15 360 16 360 -14z m-769 -18 c-7 -8 -9 -34 -5 -72 l6 -59 -192 2
c-106 0 -232 4 -280 8 l-88 7 -4 59 -3 59 155 3 c424 8 423 8 411 -7z m-661
-67 l0 -60 -43 6 c-83 13 -243 9 -427 -10 -25 -3 -51 -1 -59 4 -8 5 -17 32
-21 60 l-6 51 60 1 c34 1 155 5 271 8 116 3 213 5 218 3 4 -2 7 -30 7 -63z
m4200 -3 c14 -2 37 -5 53 -5 24 -1 27 -5 27 -36 l0 -35 -137 -1 c-76 0 -165
-4 -198 -8 -33 -5 -61 -7 -63 -6 -2 2 11 24 27 51 17 26 31 53 31 59 0 8 31 8
118 -1 64 -7 128 -15 142 -18z m9010 -114 c-1 -47 -12 -62 -49 -64 -35 -1 -35
-1 -4 -5 39 -5 49 -27 23 -53 -22 -22 -40 -26 -40 -10 0 6 -16 10 -35 10 l-35
0 0 63 c0 35 2 66 4 68 3 2 34 5 70 6 57 2 66 0 66 -15z m5407 -152 c4 -16 9
-18 24 -9 16 8 19 6 19 -10 0 -11 5 -23 10 -26 17 -10 11 -25 -12 -35 -18 -7
-19 -9 -5 -9 19 -1 24 -21 5 -21 -9 0 -8 -4 2 -10 12 -8 9 -10 -12 -10 -14 0
-29 6 -31 13 -3 6 -6 -5 -6 -25 -1 -60 -31 -42 -31 19 0 19 -4 24 -16 19 -13
-5 -15 -2 -11 14 3 13 0 20 -9 20 -18 0 -18 19 0 26 8 3 12 12 9 20 -3 9 2 14
16 14 12 0 21 6 21 15 0 22 21 18 27 -5z"/>
<path d="M3690 2010 c0 -16 -7 -20 -35 -20 -19 0 -35 5 -35 10 0 15 -22 12
-59 -6 -17 -9 -39 -13 -47 -10 -8 3 -28 -4 -44 -15 -16 -12 -34 -18 -42 -14
-7 4 -2 -3 12 -14 14 -11 32 -18 40 -15 35 14 87 23 106 18 12 -3 25 -1 29 6
4 7 11 8 18 2 17 -14 137 -25 137 -13 0 5 -5 11 -12 13 -6 2 -13 15 -15 29 -6
40 -53 66 -53 29z"/>
</g>
</svg>
